# xmcd
#
# Track frame offsets:
# 150
# 16361
# 43087
# 60816
# 77027
# 89255
# 97843
# 116293
# 142310
#
# Disc length: 2033 seconds
#
#
# Revision: 0
# Processed by: cddbd v1.5.2PL0 Copyright (c) Steve Scherf et al.
# Submitted via: FreeRIP 2.945 
#
DISCID=6707ef09
DTITLE=Clay Nightingale - The River And Then The Restless Wind
DYEAR=2007
DGENRE=
TTITLE0=Eureka
TTITLE1=Missing Missing
TTITLE2=Patio
TTITLE3=The Bar Is A Wonderful Place
TTITLE4=A Song For You For Me
TTITLE5=3 I
TTITLE6=New Pair Of Shoes
TTITLE7=Crazy Eyes
TTITLE8=Blast Off
EXTD=
EXTT0=
EXTT1=
EXTT2=
EXTT3=
EXTT4=
EXTT5=
EXTT6=
EXTT7=
EXTT8=
PLAYORDER=
